<svg width="26" height="25" viewBox="0 0 26 25" fill="none" xmlns="http://www.w3.org/2000/svg">
<path d="M0.760017 9.28652L0.75997 9.28653L0.760863 9.2913L2.98188 21.1529L2.98189 21.153C3.31479 22.9283 4.88153 24.2205 6.71797 24.25L6.71797 24.25H6.72198H19.278V24.2501L19.284 24.2499C21.1248 24.2057 22.6875 22.9039 23.0182 21.1237L25.2391 9.2914L25.2392 9.29141L25.24 9.28652C25.2806 9.04371 25.1962 8.79842 25.0175 8.63C24.8491 8.46898 24.6174 8.3917 24.3864 8.41667H18.2843V5.91822C18.2843 3.05841 15.913 0.75 13.0001 0.75C10.0872 0.75 7.71581 3.05841 7.71581 5.91822V8.41667H1.59886C1.59533 8.41667 1.59173 8.41666 1.58806 8.41666C1.50693 8.41661 1.39305 8.41653 1.28681 8.44125C1.17387 8.46751 1.04978 8.52591 0.961014 8.65109C0.797089 8.81853 0.721077 9.05366 0.760017 9.28652ZM21.3422 20.8868L21.3419 20.8886C21.1647 21.8627 20.3003 22.5826 19.2769 22.5928H6.72314C5.69965 22.5826 4.83532 21.8628 4.65812 20.8886L4.65779 20.8868L2.61135 10.0739H23.3887L21.3422 20.8868ZM9.40029 5.91822C9.40029 3.98462 11.0064 2.40723 13 2.40723C14.9936 2.40723 16.5997 3.98462 16.5997 5.91822V8.41667H9.40029V5.91822Z" fill="black" stroke="black" stroke-width="0.5"/>
</svg>
