<svg width="124" height="23" viewBox="0 0 124 23" fill="none" xmlns="http://www.w3.org/2000/svg">
<path d="M4.2 22.824H2.136C2.36 22.36 2.568 21.912 2.76 21.48C2.968 21.064 3.168 20.632 3.36 20.184C3.568 19.752 3.776 19.296 3.984 18.816C4.192 18.352 4.424 17.848 4.68 17.304C4.312 16.584 3.936 15.832 3.552 15.048C3.168 14.248 2.784 13.448 2.4 12.648C2.016 11.848 1.632 11.048 1.248 10.248C0.88 9.448 0.512 8.688 0.144 7.968H2.376C2.952 9.104 3.424 10.064 3.792 10.848C4.176 11.632 4.488 12.312 4.728 12.888C4.984 13.448 5.184 13.928 5.328 14.328C5.488 14.728 5.624 15.096 5.736 15.432C5.864 15.096 6 14.728 6.144 14.328C6.304 13.928 6.504 13.448 6.744 12.888C7 12.312 7.312 11.632 7.68 10.848C8.064 10.064 8.544 9.104 9.12 7.968H11.352L4.2 22.824ZM11.8768 13.08C11.8768 12.344 12.0128 11.656 12.2848 11.016C12.5728 10.36 12.9568 9.792 13.4368 9.312C13.9168 8.816 14.4688 8.424 15.0928 8.136C15.7328 7.848 16.4128 7.704 17.1328 7.704C17.6128 7.704 18.0528 7.768 18.4528 7.896C18.8528 8.008 19.1968 8.152 19.4848 8.328C19.7728 8.504 20.0048 8.688 20.1808 8.88C20.3568 9.072 20.4768 9.24 20.5408 9.384L20.6368 7.968H22.6048V18H20.5408V16.728C20.4608 16.856 20.3328 17.008 20.1568 17.184C19.9808 17.36 19.7488 17.528 19.4608 17.688C19.1888 17.832 18.8608 17.96 18.4768 18.072C18.0928 18.184 17.6528 18.24 17.1568 18.24C16.3888 18.24 15.6768 18.104 15.0208 17.832C14.3808 17.544 13.8288 17.168 13.3648 16.704C12.9008 16.224 12.5328 15.672 12.2608 15.048C12.0048 14.424 11.8768 13.768 11.8768 13.08ZM13.9408 12.96C13.9408 13.424 14.0208 13.856 14.1808 14.256C14.3568 14.656 14.5888 15 14.8768 15.288C15.1648 15.576 15.5088 15.808 15.9088 15.984C16.3088 16.144 16.7488 16.224 17.2288 16.224C17.7088 16.224 18.1488 16.144 18.5488 15.984C18.9648 15.808 19.3168 15.576 19.6048 15.288C19.9088 14.984 20.1408 14.64 20.3008 14.256C20.4608 13.856 20.5408 13.424 20.5408 12.96C20.5408 12.496 20.4608 12.072 20.3008 11.688C20.1408 11.288 19.9088 10.944 19.6048 10.656C19.3168 10.368 18.9648 10.144 18.5488 9.984C18.1488 9.808 17.7088 9.72 17.2288 9.72C16.7488 9.72 16.3088 9.808 15.9088 9.984C15.5088 10.144 15.1648 10.368 14.8768 10.656C14.5888 10.944 14.3568 11.288 14.1808 11.688C14.0208 12.072 13.9408 12.496 13.9408 12.96ZM25.4869 7.968H27.2869C27.3189 8.464 27.3429 8.92 27.3589 9.336C27.3909 9.736 27.4229 10.136 27.4549 10.536C27.8229 9.672 28.3429 8.984 29.0149 8.472C29.7029 7.96 30.5429 7.704 31.5349 7.704C32.5429 7.704 33.3509 7.984 33.9589 8.544C34.5669 9.104 34.8869 9.824 34.9189 10.704V18H32.8549V11.64C32.8229 11.128 32.6469 10.696 32.3269 10.344C32.0069 9.976 31.5029 9.776 30.8149 9.744C30.3349 9.744 29.8949 9.832 29.4949 10.008C29.0949 10.168 28.7509 10.392 28.4629 10.68C28.1749 10.968 27.9429 11.312 27.7669 11.712C27.6069 12.112 27.5269 12.552 27.5269 13.032V18H25.4869V7.968ZM37.6978 7.968H39.4978C39.5298 8.464 39.5538 8.92 39.5698 9.336C39.6018 9.736 39.6338 10.136 39.6658 10.536C40.0338 9.672 40.5138 8.992 41.1058 8.496C41.7138 7.984 42.5218 7.72 43.5298 7.704C44.5058 7.704 45.2898 7.952 45.8818 8.448C46.4738 8.944 46.8178 9.592 46.9138 10.392C47.3138 9.576 47.8018 8.928 48.3778 8.448C48.9698 7.968 49.7618 7.72 50.7538 7.704C51.7938 7.704 52.6098 7.984 53.2018 8.544C53.8098 9.104 54.1298 9.824 54.1618 10.704V18H52.0978V11.64C52.0658 11.128 51.8898 10.696 51.5698 10.344C51.2658 9.976 50.7618 9.776 50.0578 9.744C49.0978 9.744 48.3458 10.056 47.8018 10.68C47.2578 11.288 46.9698 12.072 46.9378 13.032V18H44.8978V11.64C44.8658 11.128 44.6818 10.696 44.3458 10.344C44.0258 9.976 43.5298 9.776 42.8578 9.744C42.3778 9.744 41.9458 9.832 41.5618 10.008C41.1778 10.168 40.8498 10.392 40.5778 10.68C40.3058 10.968 40.0978 11.312 39.9538 11.712C39.8098 12.112 39.7378 12.552 39.7378 13.032V18H37.6978V7.968ZM57.4016 18V0.599999H60.0416V15.504H68.6816V18H57.4016ZM69.3729 9.312C69.3729 8.112 69.6049 6.976 70.0689 5.904C70.5329 4.816 71.1649 3.864 71.9649 3.048C72.7809 2.232 73.7249 1.592 74.7969 1.128C75.8689 0.647999 77.0209 0.407999 78.2529 0.407999C79.4689 0.407999 80.6129 0.647999 81.6849 1.128C82.7729 1.592 83.7169 2.232 84.5169 3.048C85.3329 3.864 85.9729 4.816 86.4369 5.904C86.9169 6.976 87.1569 8.112 87.1569 9.312C87.1569 10.544 86.9169 11.696 86.4369 12.768C85.9729 13.84 85.3329 14.784 84.5169 15.6C83.7169 16.4 82.7729 17.032 81.6849 17.496C80.6129 17.96 79.4689 18.192 78.2529 18.192C77.0209 18.192 75.8689 17.96 74.7969 17.496C73.7249 17.032 72.7809 16.4 71.9649 15.6C71.1649 14.784 70.5329 13.84 70.0689 12.768C69.6049 11.696 69.3729 10.544 69.3729 9.312ZM71.9889 9.336C71.9889 10.216 72.1489 11.048 72.4689 11.832C72.8049 12.6 73.2609 13.272 73.8369 13.848C74.4129 14.424 75.0849 14.88 75.8529 15.216C76.6209 15.552 77.4369 15.72 78.3009 15.72C79.1649 15.72 79.9729 15.552 80.7249 15.216C81.4929 14.88 82.1569 14.424 82.7169 13.848C83.2929 13.272 83.7409 12.6 84.0609 11.832C84.3969 11.048 84.5649 10.208 84.5649 9.312C84.5649 8.432 84.3969 7.608 84.0609 6.84C83.7409 6.056 83.2929 5.376 82.7169 4.8C82.1409 4.224 81.4689 3.768 80.7009 3.432C79.9489 3.096 79.1409 2.928 78.2769 2.928C77.4129 2.928 76.5969 3.096 75.8289 3.432C75.0609 3.768 74.3889 4.224 73.8129 4.8C73.2529 5.376 72.8049 6.056 72.4689 6.84C72.1489 7.624 71.9889 8.456 71.9889 9.336ZM103.198 9.672V16.968C102.526 17.352 101.726 17.656 100.798 17.88C99.8701 18.088 98.9261 18.192 97.9661 18.192C96.5901 18.192 95.3501 17.976 94.2461 17.544C93.1581 17.112 92.2221 16.52 91.4381 15.768C90.6541 15 90.0541 14.096 89.6381 13.056C89.2221 12.016 89.0141 10.88 89.0141 9.648C89.0141 8.288 89.2541 7.048 89.7341 5.928C90.2301 4.792 90.8941 3.816 91.7261 3C92.5741 2.184 93.5421 1.552 94.6301 1.104C95.7341 0.639999 96.9021 0.407999 98.1341 0.407999C98.9661 0.407999 99.8381 0.519999 100.75 0.743999C101.662 0.951999 102.454 1.256 103.126 1.656L101.854 3.792C101.614 3.648 101.334 3.52 101.014 3.408C100.71 3.296 100.39 3.2 100.054 3.12C99.7181 3.04 99.3821 2.984 99.0461 2.952C98.7101 2.904 98.3901 2.88 98.0861 2.88C97.2381 2.88 96.4221 3.048 95.6381 3.384C94.8541 3.72 94.1661 4.184 93.5741 4.776C92.9821 5.368 92.5101 6.064 92.1581 6.864C91.8061 7.664 91.6301 8.528 91.6301 9.456C91.6301 10.304 91.7821 11.104 92.0861 11.856C92.4061 12.608 92.8461 13.272 93.4061 13.848C93.9661 14.424 94.6381 14.88 95.4221 15.216C96.2061 15.552 97.0701 15.72 98.0141 15.72C98.3821 15.72 98.8141 15.688 99.3101 15.624C99.8221 15.544 100.31 15.416 100.774 15.24V11.928H97.3901V9.672H103.198ZM105.42 9.312C105.42 8.112 105.652 6.976 106.116 5.904C106.58 4.816 107.212 3.864 108.012 3.048C108.828 2.232 109.772 1.592 110.844 1.128C111.916 0.647999 113.068 0.407999 114.3 0.407999C115.516 0.407999 116.66 0.647999 117.732 1.128C118.82 1.592 119.764 2.232 120.564 3.048C121.38 3.864 122.02 4.816 122.484 5.904C122.964 6.976 123.204 8.112 123.204 9.312C123.204 10.544 122.964 11.696 122.484 12.768C122.02 13.84 121.38 14.784 120.564 15.6C119.764 16.4 118.82 17.032 117.732 17.496C116.66 17.96 115.516 18.192 114.3 18.192C113.068 18.192 111.916 17.96 110.844 17.496C109.772 17.032 108.828 16.4 108.012 15.6C107.212 14.784 106.58 13.84 106.116 12.768C105.652 11.696 105.42 10.544 105.42 9.312ZM108.036 9.336C108.036 10.216 108.196 11.048 108.516 11.832C108.852 12.6 109.308 13.272 109.884 13.848C110.46 14.424 111.132 14.88 111.9 15.216C112.668 15.552 113.484 15.72 114.348 15.72C115.212 15.72 116.02 15.552 116.772 15.216C117.54 14.88 118.204 14.424 118.764 13.848C119.34 13.272 119.788 12.6 120.108 11.832C120.444 11.048 120.612 10.208 120.612 9.312C120.612 8.432 120.444 7.608 120.108 6.84C119.788 6.056 119.34 5.376 118.764 4.8C118.188 4.224 117.516 3.768 116.748 3.432C115.996 3.096 115.188 2.928 114.324 2.928C113.46 2.928 112.644 3.096 111.876 3.432C111.108 3.768 110.436 4.224 109.86 4.8C109.3 5.376 108.852 6.056 108.516 6.84C108.196 7.624 108.036 8.456 108.036 9.336Z" fill="#8E8E8E"/>
</svg>
