<svg width="23" height="23" viewBox="0 0 23 23" fill="none" xmlns="http://www.w3.org/2000/svg">
<path d="M22.0977 18.7698C21.5207 17.4788 20.6835 16.306 19.6325 15.317C18.5848 14.325 17.3436 13.5342 15.9776 12.9881C15.9654 12.9823 15.9532 12.9794 15.9409 12.9736C17.8464 11.6734 19.0851 9.5554 19.0851 7.16583C19.0851 3.20729 15.6901 0 11.5 0C7.30987 0 3.91494 3.20729 3.91494 7.16583C3.91494 9.5554 5.15363 11.6734 7.05907 12.9765C7.04684 12.9823 7.0346 12.9852 7.02237 12.991C5.65217 13.5371 4.42265 14.3201 3.36747 15.3198C2.31752 16.3097 1.4804 17.4822 0.902331 18.7727C0.334437 20.0362 0.0281593 21.3907 7.64806e-05 22.7631C-0.000739846 22.7939 0.00498573 22.8246 0.016916 22.8533C0.0288463 22.882 0.0467398 22.9082 0.0695421 22.9303C0.0923445 22.9523 0.119594 22.9699 0.149686 22.9819C0.179778 22.9938 0.212103 23 0.244756 23H2.07985C2.21442 23 2.32147 22.8989 2.32453 22.7746C2.3857 20.544 3.33383 18.4549 5.00988 16.8715C6.74405 15.2332 9.04709 14.3317 11.5 14.3317C13.9529 14.3317 16.256 15.2332 17.9901 16.8715C19.6662 18.4549 20.6143 20.544 20.6755 22.7746C20.6785 22.9018 20.7856 23 20.9202 23H22.7552C22.7879 23 22.8202 22.9938 22.8503 22.9819C22.8804 22.9699 22.9077 22.9523 22.9305 22.9303C22.9533 22.9082 22.9712 22.882 22.9831 22.8533C22.995 22.8246 23.0007 22.7939 22.9999 22.7631C22.9693 21.3819 22.6665 20.0383 22.0977 18.7698V18.7698ZM11.5 12.1357C10.0962 12.1357 8.77489 11.6185 7.78088 10.6794C6.78687 9.74033 6.2394 8.49209 6.2394 7.16583C6.2394 5.83957 6.78687 4.59133 7.78088 3.65226C8.77489 2.71319 10.0962 2.19598 11.5 2.19598C12.9038 2.19598 14.2251 2.71319 15.2191 3.65226C16.2131 4.59133 16.7606 5.83957 16.7606 7.16583C16.7606 8.49209 16.2131 9.74033 15.2191 10.6794C14.2251 11.6185 12.9038 12.1357 11.5 12.1357Z" fill="black"/>
</svg>
