<svg width="18" height="18" viewBox="0 0 18 18" fill="none" xmlns="http://www.w3.org/2000/svg">
<path d="M17.1215 16.4339L12.1924 11.5047C13.1472 10.3253 13.7221 8.82671 13.7221 7.1945C13.7221 3.4115 10.644 0.333374 6.86101 0.333374C3.07805 0.333374 0 3.41146 0 7.19446C0 10.9775 3.07809 14.0556 6.86105 14.0556C8.49324 14.0556 9.99185 13.4807 11.1712 12.5259L16.1003 17.4551C16.2412 17.5959 16.426 17.6667 16.6109 17.6667C16.7958 17.6667 16.9807 17.5959 17.1216 17.4551C17.4039 17.1727 17.4039 16.7163 17.1215 16.4339ZM6.86105 12.6111C3.87396 12.6111 1.44444 10.1816 1.44444 7.19446C1.44444 4.20734 3.87396 1.7778 6.86105 1.7778C9.84814 1.7778 12.2777 4.20734 12.2777 7.19446C12.2777 10.1816 9.8481 12.6111 6.86105 12.6111Z" fill="#275ADD"/>
</svg>
