<svg width="25" height="25" viewBox="0 0 25 25" fill="none" xmlns="http://www.w3.org/2000/svg">
<path d="M10.1041 19.3083C12.2615 19.3083 14.245 18.5596 15.816 17.3126L22.2932 23.7899C22.4995 23.9962 22.7706 24.1 23.0414 24.1C23.3123 24.1 23.5834 23.9962 23.7897 23.7899C24.2034 23.3762 24.2034 22.7072 23.7897 22.2934L17.3125 15.8161C18.5594 14.2451 19.3081 12.2616 19.3081 10.1042C19.3081 5.0292 15.179 0.9 10.104 0.9C5.02911 0.9 0.9 5.02916 0.9 10.1041C0.9 15.1791 5.02916 19.3083 10.1041 19.3083ZM10.1041 17.1916C6.19567 17.1916 3.01666 14.0126 3.01666 10.1041C3.01666 6.19568 6.19567 3.01664 10.1041 3.01664C14.0125 3.01664 17.1915 6.19568 17.1915 10.1041C17.1915 14.0126 14.0124 17.1916 10.1041 17.1916Z" fill="black" stroke="black" stroke-width="0.2"/>
</svg>
