<svg width="139" height="26" viewBox="0 0 139 26" fill="none" xmlns="http://www.w3.org/2000/svg">
<path d="M4.725 25.427H2.403C2.655 24.905 2.889 24.401 3.105 23.915C3.339 23.447 3.564 22.961 3.78 22.457C4.014 21.971 4.248 21.458 4.482 20.918C4.716 20.396 4.977 19.829 5.265 19.217C4.851 18.407 4.428 17.561 3.996 16.679C3.564 15.779 3.132 14.879 2.7 13.979C2.268 13.079 1.836 12.179 1.404 11.279C0.99 10.379 0.576 9.524 0.162 8.714H2.673C3.321 9.992 3.852 11.072 4.266 11.954C4.698 12.836 5.049 13.601 5.319 14.249C5.607 14.879 5.832 15.419 5.994 15.869C6.174 16.319 6.327 16.733 6.453 17.111C6.597 16.733 6.75 16.319 6.912 15.869C7.092 15.419 7.317 14.879 7.587 14.249C7.875 13.601 8.226 12.836 8.64 11.954C9.072 11.072 9.612 9.992 10.26 8.714H12.771L4.725 25.427ZM13.3614 14.465C13.3614 13.637 13.5144 12.863 13.8204 12.143C14.1444 11.405 14.5764 10.766 15.1164 10.226C15.6564 9.668 16.2774 9.227 16.9794 8.903C17.6994 8.579 18.4644 8.417 19.2744 8.417C19.8144 8.417 20.3094 8.489 20.7594 8.633C21.2094 8.759 21.5964 8.921 21.9204 9.119C22.2444 9.317 22.5054 9.524 22.7034 9.74C22.9014 9.956 23.0364 10.145 23.1084 10.307L23.2164 8.714H25.4304V20H23.1084V18.569C23.0184 18.713 22.8744 18.884 22.6764 19.082C22.4784 19.28 22.2174 19.469 21.8934 19.649C21.5874 19.811 21.2184 19.955 20.7864 20.081C20.3544 20.207 19.8594 20.27 19.3014 20.27C18.4374 20.27 17.6364 20.117 16.8984 19.811C16.1784 19.487 15.5574 19.064 15.0354 18.542C14.5134 18.002 14.0994 17.381 13.7934 16.679C13.5054 15.977 13.3614 15.239 13.3614 14.465ZM15.6834 14.33C15.6834 14.852 15.7734 15.338 15.9534 15.788C16.1514 16.238 16.4124 16.625 16.7364 16.949C17.0604 17.273 17.4474 17.534 17.8974 17.732C18.3474 17.912 18.8424 18.002 19.3824 18.002C19.9224 18.002 20.4174 17.912 20.8674 17.732C21.3354 17.534 21.7314 17.273 22.0554 16.949C22.3974 16.607 22.6584 16.22 22.8384 15.788C23.0184 15.338 23.1084 14.852 23.1084 14.33C23.1084 13.808 23.0184 13.331 22.8384 12.899C22.6584 12.449 22.3974 12.062 22.0554 11.738C21.7314 11.414 21.3354 11.162 20.8674 10.982C20.4174 10.784 19.9224 10.685 19.3824 10.685C18.8424 10.685 18.3474 10.784 17.8974 10.982C17.4474 11.162 17.0604 11.414 16.7364 11.738C16.4124 12.062 16.1514 12.449 15.9534 12.899C15.7734 13.331 15.6834 13.808 15.6834 14.33ZM28.6727 8.714H30.6977C30.7337 9.272 30.7607 9.785 30.7787 10.253C30.8147 10.703 30.8507 11.153 30.8867 11.603C31.3007 10.631 31.8857 9.857 32.6417 9.281C33.4157 8.705 34.3607 8.417 35.4767 8.417C36.6107 8.417 37.5197 8.732 38.2037 9.362C38.8877 9.992 39.2477 10.802 39.2837 11.792V20H36.9617V12.845C36.9257 12.269 36.7277 11.783 36.3677 11.387C36.0077 10.973 35.4407 10.748 34.6667 10.712C34.1267 10.712 33.6317 10.811 33.1817 11.009C32.7317 11.189 32.3447 11.441 32.0207 11.765C31.6967 12.089 31.4357 12.476 31.2377 12.926C31.0577 13.376 30.9677 13.871 30.9677 14.411V20H28.6727V8.714ZM42.41 8.714H44.435C44.471 9.272 44.498 9.785 44.516 10.253C44.552 10.703 44.588 11.153 44.624 11.603C45.038 10.631 45.578 9.866 46.244 9.308C46.928 8.732 47.837 8.435 48.971 8.417C50.069 8.417 50.951 8.696 51.617 9.254C52.283 9.812 52.67 10.541 52.778 11.441C53.228 10.523 53.777 9.794 54.425 9.254C55.091 8.714 55.982 8.435 57.098 8.417C58.268 8.417 59.186 8.732 59.852 9.362C60.536 9.992 60.896 10.802 60.932 11.792V20H58.61V12.845C58.574 12.269 58.376 11.783 58.016 11.387C57.674 10.973 57.107 10.748 56.315 10.712C55.235 10.712 54.389 11.063 53.777 11.765C53.165 12.449 52.841 13.331 52.805 14.411V20H50.51V12.845C50.474 12.269 50.267 11.783 49.889 11.387C49.529 10.973 48.971 10.748 48.215 10.712C47.675 10.712 47.189 10.811 46.757 11.009C46.325 11.189 45.956 11.441 45.65 11.765C45.344 12.089 45.11 12.476 44.948 12.926C44.786 13.376 44.705 13.871 44.705 14.411V20H42.41V8.714Z" fill="black"/>
<path d="M64.8405 20V0.424999H67.8105V17.192H77.5305V20H64.8405ZM78.3082 10.226C78.3082 8.876 78.5692 7.598 79.0912 6.392C79.6132 5.168 80.3242 4.097 81.2242 3.179C82.1422 2.261 83.2042 1.541 84.4102 1.019C85.6162 0.478999 86.9122 0.208999 88.2982 0.208999C89.6662 0.208999 90.9532 0.478999 92.1592 1.019C93.3832 1.541 94.4452 2.261 95.3452 3.179C96.2632 4.097 96.9832 5.168 97.5052 6.392C98.0452 7.598 98.3152 8.876 98.3152 10.226C98.3152 11.612 98.0452 12.908 97.5052 14.114C96.9832 15.32 96.2632 16.382 95.3452 17.3C94.4452 18.2 93.3832 18.911 92.1592 19.433C90.9532 19.955 89.6662 20.216 88.2982 20.216C86.9122 20.216 85.6162 19.955 84.4102 19.433C83.2042 18.911 82.1422 18.2 81.2242 17.3C80.3242 16.382 79.6132 15.32 79.0912 14.114C78.5692 12.908 78.3082 11.612 78.3082 10.226ZM81.2512 10.253C81.2512 11.243 81.4312 12.179 81.7912 13.061C82.1692 13.925 82.6822 14.681 83.3302 15.329C83.9782 15.977 84.7342 16.49 85.5982 16.868C86.4622 17.246 87.3802 17.435 88.3522 17.435C89.3242 17.435 90.2332 17.246 91.0792 16.868C91.9432 16.49 92.6902 15.977 93.3202 15.329C93.9682 14.681 94.4722 13.925 94.8322 13.061C95.2102 12.179 95.3992 11.234 95.3992 10.226C95.3992 9.236 95.2102 8.309 94.8322 7.445C94.4722 6.563 93.9682 5.798 93.3202 5.15C92.6722 4.502 91.9162 3.989 91.0522 3.611C90.2062 3.233 89.2972 3.044 88.3252 3.044C87.3532 3.044 86.4352 3.233 85.5712 3.611C84.7072 3.989 83.9512 4.502 83.3032 5.15C82.6732 5.798 82.1692 6.563 81.7912 7.445C81.4312 8.327 81.2512 9.263 81.2512 10.253ZM116.362 10.631V18.839C115.606 19.271 114.706 19.613 113.662 19.865C112.618 20.099 111.556 20.216 110.476 20.216C108.928 20.216 107.533 19.973 106.291 19.487C105.067 19.001 104.014 18.335 103.132 17.489C102.25 16.625 101.575 15.608 101.107 14.438C100.639 13.268 100.405 11.99 100.405 10.604C100.405 9.074 100.675 7.679 101.215 6.419C101.773 5.141 102.52 4.043 103.456 3.125C104.41 2.207 105.499 1.496 106.723 0.991998C107.965 0.469999 109.279 0.208999 110.665 0.208999C111.601 0.208999 112.582 0.334999 113.608 0.586999C114.634 0.820999 115.525 1.163 116.281 1.613L114.85 4.016C114.58 3.854 114.265 3.71 113.905 3.584C113.563 3.458 113.203 3.35 112.825 3.26C112.447 3.17 112.069 3.107 111.691 3.071C111.313 3.017 110.953 2.99 110.611 2.99C109.657 2.99 108.739 3.179 107.857 3.557C106.975 3.935 106.201 4.457 105.535 5.123C104.869 5.789 104.338 6.572 103.942 7.472C103.546 8.372 103.348 9.344 103.348 10.388C103.348 11.342 103.519 12.242 103.861 13.088C104.221 13.934 104.716 14.681 105.346 15.329C105.976 15.977 106.732 16.49 107.614 16.868C108.496 17.246 109.468 17.435 110.53 17.435C110.944 17.435 111.43 17.399 111.988 17.327C112.564 17.237 113.113 17.093 113.635 16.895V13.169H109.828V10.631H116.362ZM118.861 10.226C118.861 8.876 119.122 7.598 119.644 6.392C120.166 5.168 120.877 4.097 121.777 3.179C122.695 2.261 123.757 1.541 124.963 1.019C126.169 0.478999 127.465 0.208999 128.851 0.208999C130.219 0.208999 131.506 0.478999 132.712 1.019C133.936 1.541 134.998 2.261 135.898 3.179C136.816 4.097 137.536 5.168 138.058 6.392C138.598 7.598 138.868 8.876 138.868 10.226C138.868 11.612 138.598 12.908 138.058 14.114C137.536 15.32 136.816 16.382 135.898 17.3C134.998 18.2 133.936 18.911 132.712 19.433C131.506 19.955 130.219 20.216 128.851 20.216C127.465 20.216 126.169 19.955 124.963 19.433C123.757 18.911 122.695 18.2 121.777 17.3C120.877 16.382 120.166 15.32 119.644 14.114C119.122 12.908 118.861 11.612 118.861 10.226ZM121.804 10.253C121.804 11.243 121.984 12.179 122.344 13.061C122.722 13.925 123.235 14.681 123.883 15.329C124.531 15.977 125.287 16.49 126.151 16.868C127.015 17.246 127.933 17.435 128.905 17.435C129.877 17.435 130.786 17.246 131.632 16.868C132.496 16.49 133.243 15.977 133.873 15.329C134.521 14.681 135.025 13.925 135.385 13.061C135.763 12.179 135.952 11.234 135.952 10.226C135.952 9.236 135.763 8.309 135.385 7.445C135.025 6.563 134.521 5.798 133.873 5.15C133.225 4.502 132.469 3.989 131.605 3.611C130.759 3.233 129.85 3.044 128.878 3.044C127.906 3.044 126.988 3.233 126.124 3.611C125.26 3.989 124.504 4.502 123.856 5.15C123.226 5.798 122.722 6.563 122.344 7.445C121.984 8.327 121.804 9.263 121.804 10.253Z" fill="#275ADD"/>
</svg>
